Genre:Drama | History
Language:English
IMDb:http://www.imdb.com/title/tt1242516/
Source:BluRay.x264.-iNVANDRAREN
Subtitles:Romana


Format : Matroska
File size : 2.30 GiB
Duration : 2h 3mn
Overall bit rate : 2 656 Kbps


Video
Format settings, CABAC : Yes
Format settings, ReFrames : 4 frames
Codec ID : V_MPEG4/ISO/AVC
Duration : 2h 3mn
Bit rate : 2 300 Kbps
Width : 1 280 pixels
Height : 544 pixels
Display aspect ratio : 2.35:1
Frame rate mode : Variable
Frame rate : 25.000 fps
Color space : YUV
Chroma subsampling : 4:2:0
Bit depth : 8 bits
Scan type : Progressive
Bits/(Pixel*Frame) : 0.132
Stream size : 1.92 GiB (84%)
Writing library : x264 

Audio
ID : 2
Format : AC-3
Format/Info : Audio Coding 3
Mode extension : CM (complete main)
Codec ID : A_AC3
Duration : 2h 3mn
Bit rate mode : Constant
Bit rate : 384 Kbps
Channel(s) : 6 channels
Channel positions : Front: L C R, Side: L R, LFE
Sampling rate : 48.0 KHz
Bit depth : 16 bits
Video delay : -1mn 5s
Stream size : 340 MiB (14%)
Language : English


Plot:
In Italy, year 1100, the Northern lands are ruled by the German Emperor Barbarossa.
His dream is to also conquer the lands in the center and the South to revive the empire that once belonged
to Charles the Great. But in the North, a young man from Milan named Alberto Da Giussano has formed an
army of 900 men all from different cities known as the company of death. His dream is to defeat the Emperor
and give freedom back to the Northern lands.